@startuml ng-platform-srv-person-profile-erd

!include ../../common/plantuml/erd.plantuml

entity person {
    id: uuid <<PK>>
    email: varchar(255)
    phone_number: varchar(255)
    role: varchar(255)
    first_name: varchar(255)
    last_name: varchar(255)
    middle_name: varchar(255)
    gender: varchar(255)
    date_of_birth: date
    place_of_birth: varchar(255)
    place_of_work: varchar(255)
    passport_series: number(4)
    passport_number: number(6)
    place_of_issue: varchar(255)
    date_of_issue: date
    department_code: char(7)
    street: varchar(255)
    house_number: number(6)
    house_building: number(6)
    house_letter: char(1)
    flat: number(6)
    city: varchar(255)
    postal_code: number(6)
    --
    <<unique>>: email
}

entity person_social_network {
    id: uuid <<PK>>
    person_id: uuid <<FK>>
    social_network_id: varchar(255) <<FK>>
    link: varchar(255)
    --
    <<index>> person_id
}

entity social_network {
    id: varchar(255) <<PK>>
    --
}

entity person_messenger {
    id: uuid <<PK>>
    person_id: uuid <<FK>>
    messenger_id: varchar(255) <<FK>>
    nickname: varchar(255)
    --
    <<index>> person_id
}

entity messenger {
    id: varchar(255) <<PK>>
    --
}

person ||--o{ person_social_network
person_social_network }o--|| social_network
person ||--o{ person_messenger
person_messenger }o--|| messenger

@endulm
